<svg width="760" height="635" viewBox="0 0 760 635" fill="none" xmlns="http://www.w3.org/2000/svg">
<g clip-path="url(#clip0_223_224)">
<rect width="760" height="635" fill="#B2D1FF"/>
<path d="M12 20L324 8L292.5 145L579.5 20H449L324 56.5L12 20Z" fill="#BBD6FF"/>
<path d="M863.917 41.9529C906.87 97.966 881.708 383.118 808.022 439.623C762.588 474.464 731.5 431.123 743 367.5C718.355 323.635 689.18 270.717 671.5 239C589 91 534.27 45.4907 607.956 -11.0144C681.643 -67.5195 820.964 -14.0602 863.917 41.9529Z" fill="white"/>
<path d="M931.875 343.354C962.608 393.233 898.638 638.327 823.853 684.406C777.658 712.869 768.948 689.599 740.818 635C723.41 601.211 667.49 523.009 649 493C618.267 443.121 666.034 382.55 740.818 336.472C815.603 290.393 901.142 293.474 931.875 343.354Z" fill="white"/>
<path d="M663 321L564.051 89L353.533 153.5L1.65972 556L375.746 502L367.164 367L59.2115 297.5V89L442.89 297.5L663 589H-15L471.666 529.5L663 321Z" fill="#BBD6FF"/>
</g>
<defs>
<clipPath id="clip0_223_224">
<rect width="760" height="635" fill="white"/>
</clipPath>
</defs>
</svg>
