<svg width="967" height="668" viewBox="0 0 967 668" fill="none" xmlns="http://www.w3.org/2000/svg">
<path d="M494.5 639C700.778 639 868 615.495 868 586.5C868 557.505 700.778 534 494.5 534C288.222 534 121 557.505 121 586.5C121 615.495 288.222 639 494.5 639Z" fill="#3F3D56"/>
<path d="M216 340.592C216 340.592 302.415 316.105 307.733 395.007C313.05 473.909 236.607 496.356 296.432 512" stroke="#2F2E41" stroke-width="2" stroke-miterlimit="10"/>
<path d="M508 521C604.098 521 682 440.411 682 341C682 241.589 604.098 161 508 161C411.902 161 334 241.589 334 341C334 440.411 411.902 521 508 521Z" fill="#2F2E41"/>
<path d="M482 482H429V580H482V482Z" fill="#2F2E41"/>
<path d="M587 482H534V580H587V482Z" fill="#2F2E41"/>
<path d="M473 599C497.301 599 517 591.389 517 582C517 572.611 497.301 565 473 565C448.699 565 429 572.611 429 582C429 591.389 448.699 599 473 599Z" fill="#2F2E41"/>
<path d="M577.5 597C601.524 597 621 589.389 621 580C621 570.611 601.524 563 577.5 563C553.476 563 534 570.611 534 580C534 589.389 553.476 597 577.5 597Z" fill="#2F2E41"/>
<path d="M512 357C545.137 357 572 329.689 572 296C572 262.311 545.137 235 512 235C478.863 235 452 262.311 452 296C452 329.689 478.863 357 512 357Z" fill="white"/>
<path d="M512 316C523.046 316 532 306.822 532 295.5C532 284.178 523.046 275 512 275C500.954 275 492 284.178 492 295.5C492 306.822 500.954 316 512 316Z" fill="#3F3D56"/>
<path d="M339.566 174.52C325.55 109.403 370.356 43.6055 439.643 27.5566C508.931 11.5077 576.463 51.2851 590.48 116.402C604.496 181.519 558.577 205.535 489.289 221.584C420.001 237.633 353.583 239.637 339.566 174.52Z" fill="#FFC107"/>
<path d="M670.621 305.782C714.65 286.245 745.548 258.789 739.632 244.459C733.716 230.128 693.227 234.349 649.197 253.887C605.167 273.425 574.27 300.881 580.186 315.211C586.102 329.541 626.591 325.32 670.621 305.782Z" fill="#2F2E41"/>
<path d="M345.701 426.416C389.731 406.879 420.629 379.423 414.713 365.093C408.797 350.762 368.307 354.984 324.278 374.521C280.248 394.059 249.35 421.515 255.266 435.845C261.182 450.176 301.672 445.954 345.701 426.416Z" fill="#2F2E41"/>
<path d="M582 442C570.126 418.868 541.71 396.797 509.52 400.385C485.84 403.024 464.236 419.631 455 437.823" stroke="white" stroke-width="10" stroke-linecap="round"/>
<path d="M459.573 430.118C444.35 450.488 469.72 427.721 497.626 409.747C515.384 400.161 527.409 407.038 540.753 413.342C568.528 426.461 587.686 452.684 578.807 437.307" stroke="white" stroke-width="10" stroke-linecap="round"/>
</svg>
