<svg width="628" height="434" viewBox="0 0 628 434" fill="none" xmlns="http://www.w3.org/2000/svg">
<path d="M164.127 264.498C230.111 264.498 283.601 205.288 283.601 132.249C283.601 59.2099 230.111 0 164.127 0C98.1436 0 44.6533 59.2099 44.6533 132.249C44.6533 205.288 98.1436 264.498 164.127 264.498Z" fill="#F2F2F2"/>
<path d="M0 31.7534C0 79.8708 27.2704 118.807 60.9713 118.807Z" fill="#2F2E41"/>
<path d="M60.9712 118.807C60.9712 70.1489 91.4034 30.7754 129.012 30.7754Z" fill="#3381E2"/>
<path d="M22.0908 36.1157C22.0908 81.8222 39.4806 118.807 60.9711 118.807Z" fill="#3381E2"/>
<path d="M60.9712 118.807C60.9712 56.6328 96.146 6.32227 139.615 6.32227Z" fill="#2F2E41"/>
<path d="M48.1445 119.421C48.1445 119.421 56.7913 119.126 59.3972 117.072C62.0031 115.018 72.698 112.565 73.3445 115.86C73.991 119.154 86.3389 132.244 76.5768 132.331C66.8147 132.418 53.894 130.648 51.2931 128.894C48.6922 127.14 48.1445 119.421 48.1445 119.421Z" fill="#A8A8A8"/>
<path opacity="0.2" d="M76.751 131.184C66.9889 131.271 54.0682 129.501 51.4673 127.747C49.4866 126.411 48.6973 121.619 48.4332 119.408C48.2503 119.417 48.1445 119.421 48.1445 119.421C48.1445 119.421 48.6922 127.14 51.2931 128.894C53.894 130.647 66.8147 132.418 76.5768 132.331C79.3948 132.305 80.3681 131.196 80.3147 129.552C79.9232 130.545 78.8484 131.165 76.751 131.184Z" fill="black"/>
<path d="M111.402 279.362C169.331 279.362 216.292 272.29 216.292 263.567C216.292 254.843 169.331 247.771 111.402 247.771C53.4726 247.771 6.51172 254.843 6.51172 263.567C6.51172 272.29 53.4726 279.362 111.402 279.362Z" fill="#3F3D56"/>
<path opacity="0.1" d="M111.402 276.828C160.037 276.828 199.465 270.891 199.465 263.567C199.465 256.242 160.037 250.305 111.402 250.305C62.766 250.305 23.3389 256.242 23.3389 263.567C23.3389 270.891 62.766 276.828 111.402 276.828Z" fill="black"/>
<path d="M469.262 434C556.931 434 628 423.298 628 410.096C628 396.894 556.931 386.192 469.262 386.192C381.594 386.192 310.525 396.894 310.525 410.096C310.525 423.298 381.594 434 469.262 434Z" fill="#3F3D56"/>
<path d="M174.224 415.142C226.887 415.142 269.579 408.713 269.579 400.782C269.579 392.852 226.887 386.423 174.224 386.423C121.561 386.423 78.8691 392.852 78.8691 400.782C78.8691 408.713 121.561 415.142 174.224 415.142Z" fill="#3F3D56"/>
<path d="M259.482 388.675C309.964 402.956 407.001 370.049 417.659 332.795" stroke="#2F2E41" stroke-width="2" stroke-miterlimit="10"/>
<path d="M173.663 160.81C173.663 160.81 246.581 138.458 251.069 210.481C255.556 282.504 191.051 302.993 241.533 317.273" stroke="#2F2E41" stroke-width="2" stroke-miterlimit="10"/>
<path d="M103.214 333.592C103.214 333.592 125.13 326.874 126.479 348.521C127.827 370.168 108.44 376.326 123.613 380.618" stroke="#2F2E41" stroke-width="2" stroke-miterlimit="10"/>
<path d="M436.783 349.708L432.365 380.936C432.365 380.936 410.612 393.728 425.907 394.104C441.202 394.48 513.259 394.104 513.259 394.104C513.259 394.104 527.195 394.104 505.102 380.56L500.683 347.827L436.783 349.708Z" fill="#2F2E41"/>
<path opacity="0.1" d="M422.83 393.765C426.303 390.344 432.365 386.779 432.365 386.779L436.783 355.552L500.683 355.618L505.102 386.403C510.254 389.561 513.445 391.983 515.312 393.84C518.15 393.123 521.251 390.46 505.102 380.56L500.683 347.827L436.783 349.708L432.365 380.936C432.365 380.936 414.086 391.686 422.83 393.765Z" fill="black"/>
<path d="M602.216 132.056H334.571C328.98 132.056 324.449 137.072 324.449 143.26V342.831C324.449 349.019 328.98 354.035 334.571 354.035H602.216C607.806 354.035 612.338 349.019 612.338 342.831V143.26C612.338 137.072 607.806 132.056 602.216 132.056Z" fill="#2F2E41"/>
<path d="M602.651 143.907H334.136V310.204H602.651V143.907Z" fill="#3F3D56"/>
<path d="M468.393 140.521C469.332 140.521 470.093 139.678 470.093 138.639C470.093 137.601 469.332 136.758 468.393 136.758C467.455 136.758 466.694 137.601 466.694 138.639C466.694 139.678 467.455 140.521 468.393 140.521Z" fill="#F2F2F2"/>
<path d="M612.338 323.372V342.831C612.338 344.302 612.076 345.759 611.567 347.119C611.059 348.478 610.313 349.713 609.373 350.754C608.433 351.794 607.317 352.62 606.089 353.183C604.861 353.746 603.545 354.035 602.216 354.035H334.571C333.241 354.035 331.925 353.746 330.697 353.183C329.469 352.62 328.353 351.794 327.413 350.754C326.473 349.713 325.728 348.478 325.219 347.119C324.71 345.759 324.449 344.302 324.449 342.831V323.372H612.338Z" fill="#2F2E41"/>
<path d="M543.51 414.421V418.183H360.647V415.173L360.899 414.421L365.406 400.876H539.771L543.51 414.421Z" fill="#2F2E41"/>
<path d="M613.881 410.738C613.548 412.314 612.29 413.977 609.449 415.55C599.252 421.193 578.518 414.045 578.518 414.045C578.518 414.045 562.543 411.035 562.543 403.134C562.992 402.794 563.46 402.486 563.944 402.212C568.231 399.701 582.445 393.506 607.649 402.474C609.505 403.119 611.164 404.323 612.439 405.95C613.461 407.273 614.262 408.952 613.881 410.738Z" fill="#2F2E41"/>
<path opacity="0.1" d="M613.881 410.738C601.4 416.031 590.275 416.426 578.858 407.649C573.101 403.224 567.87 402.129 563.944 402.212C568.231 399.701 582.445 393.506 607.649 402.474C609.505 403.119 611.164 404.323 612.439 405.95C613.461 407.273 614.262 408.952 613.881 410.738Z" fill="black"/>
<path d="M598.232 407.649C600.672 407.649 602.651 406.975 602.651 406.144C602.651 405.312 600.672 404.639 598.232 404.639C595.792 404.639 593.813 405.312 593.813 406.144C593.813 406.975 595.792 407.649 598.232 407.649Z" fill="#F2F2F2"/>
<path d="M468.394 345.946C471.96 345.946 474.851 342.745 474.851 338.797C474.851 334.849 471.96 331.649 468.394 331.649C464.827 331.649 461.936 334.849 461.936 338.797C461.936 342.745 464.827 345.946 468.394 345.946Z" fill="#F2F2F2"/>
<path opacity="0.1" d="M543.51 414.421V418.183H360.647V415.173L360.899 414.421H543.51Z" fill="black"/>
<path d="M177.589 98.7212H60.9199V248.976H177.589V98.7212Z" fill="#2F2E41"/>
<path d="M189.368 83.8198H49.1406V137.216H189.368V83.8198Z" fill="#3F3D56"/>
<path d="M189.368 147.15H49.1406V200.547H189.368V147.15Z" fill="#3F3D56"/>
<path d="M189.368 210.48H49.1406V263.877H189.368V210.48Z" fill="#3F3D56"/>
<path opacity="0.4" d="M161.323 93.1328H152.348V103.067H161.323V93.1328Z" fill="#3381E2"/>
<path opacity="0.8" d="M174.224 93.1328H165.249V103.067H174.224V93.1328Z" fill="#3381E2"/>
<path d="M187.124 93.1328H178.15V103.067H187.124V93.1328Z" fill="#3381E2"/>
<path opacity="0.4" d="M161.323 155.843H152.348V165.777H161.323V155.843Z" fill="#3381E2"/>
<path opacity="0.8" d="M174.224 155.843H165.249V165.777H174.224V155.843Z" fill="#3381E2"/>
<path d="M187.124 155.843H178.15V165.777H187.124V155.843Z" fill="#3381E2"/>
<path opacity="0.4" d="M161.323 218.552H152.348V228.486H161.323V218.552Z" fill="#3381E2"/>
<path opacity="0.8" d="M174.224 218.552H165.249V228.486H174.224V218.552Z" fill="#3381E2"/>
<path d="M187.124 218.552H178.15V228.486H187.124V218.552Z" fill="#3381E2"/>
<path d="M177.589 383.087C202.062 383.087 221.901 361.127 221.901 334.037C221.901 306.948 202.062 284.987 177.589 284.987C153.116 284.987 133.277 306.948 133.277 334.037C133.277 361.127 153.116 383.087 177.589 383.087Z" fill="#2F2E41"/>
<path d="M170.858 372.532H157.396V399.23H170.858V372.532Z" fill="#2F2E41"/>
<path d="M197.782 372.532H184.32V399.23H197.782V372.532Z" fill="#2F2E41"/>
<path d="M168.615 404.197C174.81 404.197 179.833 402.112 179.833 399.541C179.833 396.969 174.81 394.884 168.615 394.884C162.419 394.884 157.396 396.969 157.396 399.541C157.396 402.112 162.419 404.197 168.615 404.197Z" fill="#2F2E41"/>
<path d="M195.538 403.576C201.734 403.576 206.757 401.492 206.757 398.92C206.757 396.348 201.734 394.263 195.538 394.263C189.343 394.263 184.32 396.348 184.32 398.92C184.32 401.492 189.343 403.576 195.538 403.576Z" fill="#2F2E41"/>
<path d="M178.711 338.383C187.075 338.383 193.856 330.878 193.856 321.619C193.856 312.361 187.075 304.855 178.711 304.855C170.347 304.855 163.566 312.361 163.566 321.619C163.566 330.878 170.347 338.383 178.711 338.383Z" fill="white"/>
<path d="M178.711 327.207C181.499 327.207 183.759 324.706 183.759 321.619C183.759 318.533 181.499 316.031 178.711 316.031C175.923 316.031 173.663 318.533 173.663 321.619C173.663 324.706 175.923 327.207 178.711 327.207Z" fill="#3F3D56"/>
<path d="M134.605 288.422C131.027 270.685 142.465 252.762 160.151 248.39C177.838 244.019 195.076 254.854 198.654 272.591C202.232 290.328 190.511 296.87 172.824 301.242C155.137 305.613 138.183 306.159 134.605 288.422Z" fill="#3381E2"/>
<path d="M219.149 324.254C230.399 318.925 238.293 311.435 236.781 307.526C235.27 303.617 224.925 304.768 213.676 310.098C202.427 315.428 194.532 322.917 196.044 326.826C197.555 330.735 207.9 329.584 219.149 324.254Z" fill="#2F2E41"/>
<path d="M136.135 357.161C147.384 351.832 155.278 344.342 153.767 340.433C152.255 336.524 141.911 337.676 130.661 343.005C119.412 348.335 111.518 355.824 113.029 359.733C114.541 363.642 124.885 362.491 136.135 357.161Z" fill="#2F2E41"/>
<path d="M203.391 348.318C203.391 353.118 192.224 362.598 179.833 362.598C167.442 362.598 155.714 353.739 155.714 348.939C155.714 344.138 167.442 345.213 179.833 345.213C192.224 345.213 203.391 343.517 203.391 348.318Z" fill="white"/>
</svg>
